<!-- * All icons are SVG and come from https://icons.getbootstrap.com/ -->
<svg xmlns="http://www.w3.org/2000/svg" width="16" height="16" fill="currentColor">
<defs>
<symbol id="icon-logo" viewBox="0 0 192 32">
    <path d="M2.694 26.324a2.694 2.694 0 002.695-2.697V2.697a2.694 2.694 0 10-5.389 0v20.93a2.694 2.694 0 002.694 2.697zm15.506.213c5.92 0 10.317-4.435 10.317-9.898v-.071c0-5.464-4.36-9.827-10.246-9.827-5.92 0-10.317 4.434-10.317 9.898v.07c0 5.464 4.361 9.828 10.246 9.828zm.071-4.648c-2.978 0-4.999-2.448-4.999-5.25v-.071c0-2.803 1.844-5.18 4.928-5.18 2.978 0 5 2.448 5 5.25v.072c0 2.802-1.844 5.18-4.929 5.18zm21.887 4.648c5.921 0 10.317-4.435 10.317-9.898v-.071c0-5.464-4.36-9.827-10.246-9.827-5.92 0-10.317 4.434-10.317 9.898v.07c0 5.464 4.361 9.828 10.246 9.828zm.071-4.648c-2.978 0-4.999-2.448-4.999-5.25v-.071c0-2.803 1.844-5.18 4.928-5.18 2.979 0 5 2.448 5 5.25v.072c0 2.802-1.844 5.18-4.929 5.18zM55.487 32a2.694 2.694 0 002.694-2.696v-5.677c1.277 1.526 3.05 2.839 5.921 2.839 4.503 0 8.65-3.477 8.65-9.827v-.071c0-6.35-4.218-9.827-8.65-9.827-2.8 0-4.609 1.312-5.92 3.086V9.58a2.694 2.694 0 10-5.39 0v19.725A2.694 2.694 0 0055.488 32zm7.232-10.11c-2.517 0-4.608-2.094-4.608-5.251v-.071c0-3.158 2.091-5.25 4.608-5.25 2.518 0 4.645 2.092 4.645 5.25v.07c0 3.193-2.127 5.251-4.645 5.251zm19.087 4.576c4.113 0 7.268-1.916 7.268-6.138v-.07c0-3.478-3.084-4.755-5.743-5.642-2.057-.71-3.865-1.206-3.865-2.27v-.071c0-.745.674-1.313 1.985-1.313 1.135 0 2.589.462 4.113 1.207.355.177.603.248.993.248 1.205 0 2.162-.923 2.162-2.129 0-.922-.496-1.632-1.276-2.022-1.843-.922-3.9-1.454-5.885-1.454-3.83 0-6.949 2.164-6.949 6.03v.072c0 3.69 3.014 4.93 5.673 5.711 2.091.639 3.935 1.03 3.935 2.2v.07c0 .852-.71 1.42-2.27 1.42-1.524 0-3.332-.568-5.14-1.703a2.066 2.066 0 00-1.064-.284c-1.205 0-2.127.923-2.127 2.129 0 .851.461 1.49 1.028 1.845 2.305 1.49 4.822 2.164 7.162 2.164zm15.612-.036c1.17 0 2.092-.142 3.085-.532a2.194 2.194 0 001.382-2.022 2.248 2.248 0 00-2.233-2.235c-.107 0-.461.035-.638.035-1.206 0-1.738-.603-1.738-1.845v-8.124h2.376a2.3 2.3 0 002.304-2.306 2.3 2.3 0 00-2.304-2.306h-2.376V4.718a2.694 2.694 0 10-5.389 0v2.377h-.177a2.3 2.3 0 00-2.304 2.306 2.3 2.3 0 002.304 2.306h.177v9.011c0 4.4 2.234 5.712 5.531 5.712zm13.024.036c2.73 0 4.325-1.455 5.566-3.051v.212a2.694 2.694 0 105.39 0V9.58a2.694 2.694 0 10-5.39 0v8.124c0 2.554-1.311 3.867-3.368 3.867-2.056 0-3.261-1.313-3.261-3.867V9.579a2.694 2.694 0 10-5.39 0v9.827c0 4.363 2.376 7.06 6.453 7.06zm21.994 0c2.8 0 4.609-1.313 5.92-3.087v.248a2.694 2.694 0 105.39 0V2.697a2.694 2.694 0 10-5.39 0v6.882c-1.276-1.526-3.048-2.838-5.92-2.838-4.503 0-8.65 3.476-8.65 9.827v.07c0 6.35 4.218 9.828 8.65 9.828zm1.383-4.577c-2.518 0-4.645-2.093-4.645-5.25v-.071c0-3.193 2.127-5.25 4.645-5.25 2.517 0 4.608 2.092 4.608 5.25v.07c0 3.158-2.091 5.251-4.608 5.251zm16.108-16.71c1.702 0 3.014-.993 3.014-2.554v-.07c0-1.562-1.312-2.52-3.014-2.52-1.702 0-3.013.958-3.013 2.52v.07c0 1.561 1.311 2.555 3.013 2.555zm0 21.145a2.694 2.694 0 002.694-2.697V9.58a2.694 2.694 0 10-5.388 0v14.048a2.694 2.694 0 002.694 2.697zm15.506.213c5.92 0 10.317-4.435 10.317-9.898v-.071c0-5.464-4.361-9.827-10.246-9.827-5.921 0-10.317 4.434-10.317 9.898v.07c0 5.464 4.36 9.828 10.246 9.828zm.07-4.648c-2.977 0-4.998-2.448-4.998-5.25v-.071c0-2.803 1.843-5.18 4.928-5.18 2.978 0 4.999 2.448 4.999 5.25v.072c0 2.802-1.844 5.18-4.928 5.18zm19.23 4.577c4.112 0 7.267-1.916 7.267-6.138v-.07c0-3.478-3.084-4.755-5.743-5.642-2.057-.71-3.865-1.206-3.865-2.27v-.071c0-.745.674-1.313 1.986-1.313 1.134 0 2.588.462 4.112 1.207.355.177.603.248.993.248 1.205 0 2.162-.923 2.162-2.129 0-.922-.496-1.632-1.276-2.022-1.843-.922-3.9-1.454-5.885-1.454-3.83 0-6.949 2.164-6.949 6.03v.072c0 3.69 3.014 4.93 5.673 5.711 2.091.639 3.935 1.03 3.935 2.2v.07c0 .852-.71 1.42-2.27 1.42-1.524 0-3.332-.568-5.14-1.703a2.066 2.066 0 00-1.063-.284c-1.206 0-2.128.923-2.128 2.129 0 .851.461 1.49 1.028 1.845 2.305 1.49 4.822 2.164 7.162 2.164z" fill="#FFF" fill-rule="nonzero"/>
</symbol>
<symbol id="icon-blacklist" viewBox="0 0 44 44">
    <path d="M11.07 0C8.353 0 6.14 2.192 6.14 4.876l-.179 25.278 2.69.02.179-25.289c0-1.21 1.005-2.196 2.24-2.196h27.027V0H11.071z"/>
    <path d="M38.097 0a5.115 5.115 0 00-5.11 5.11v28.37c0 2.052-1.668 3.72-3.72 3.72a3.725 3.725 0 01-3.72-3.72V30.21c0-.743-.601-1.345-1.344-1.345H1.345C.602 28.864 0 29.466 0 30.21v3.272a6.417 6.417 0 006.41 6.409V37.2a3.724 3.724 0 01-3.72-3.72v-1.927h20.168v1.928a6.417 6.417 0 006.41 6.409 6.417 6.417 0 006.409-6.41V12.46h6.185c.743 0 1.345-.602 1.345-1.345V5.11A5.115 5.115 0 0038.097 0zm2.42 9.77h-4.84V5.11a2.423 2.423 0 012.42-2.42 2.423 2.423 0 012.42 2.42v4.66z"/>
    <path d="M6.14 37.201h22.813v2.689H6.14zM19.99 7.485h-6.947a1.345 1.345 0 100 2.69h6.947a1.345 1.345 0 100-2.69zM28.057 12.863H13.043a1.345 1.345 0 100 2.69h15.014a1.345 1.345 0 100-2.69zM28.057 18.242H13.043a1.345 1.345 0 100 2.69h15.014a1.344 1.344 0 100-2.69zM28.057 23.62H13.043a1.345 1.345 0 100 2.69h15.014a1.345 1.345 0 100-2.69z"/>
</symbol>
<symbol id="icon-facebook" viewBox="0 0 16 16">
  <path d="M16 8.049c0-4.446-3.582-8.05-8-8.05C3.58 0-.002 3.603-.002 8.05c0 4.017 2.926 7.347 6.75 7.951v-5.625h-2.03V8.05H6.75V6.275c0-2.017 1.195-3.131 3.022-3.131.876 0 1.791.157 1.791.157v1.98h-1.009c-.993 0-1.303.621-1.303 1.258v1.51h2.218l-.354 2.326H9.25V16c3.824-.604 6.75-3.934 6.75-7.951z"/>
</symbol>
<symbol id="icon-twitter" viewBox="0 0 16 16">
  <path d="M5.026 15c6.038 0 9.341-5.003 9.341-9.334 0-.14 0-.282-.006-.422A6.685 6.685 0 0 0 16 3.542a6.658 6.658 0 0 1-1.889.518 3.301 3.301 0 0 0 1.447-1.817 6.533 6.533 0 0 1-2.087.793A3.286 3.286 0 0 0 7.875 6.03a9.325 9.325 0 0 1-6.767-3.429 3.289 3.289 0 0 0 1.018 4.382A3.323 3.323 0 0 1 .64 6.575v.045a3.288 3.288 0 0 0 2.632 3.218 3.203 3.203 0 0 1-.865.115 3.23 3.23 0 0 1-.614-.057 3.283 3.283 0 0 0 3.067 2.277A6.588 6.588 0 0 1 .78 13.58a6.32 6.32 0 0 1-.78-.045A9.344 9.344 0 0 0 5.026 15z"/>
</symbol>
<symbol id="icon-instagram" viewBox="0 0 16 16">
  <path d="M8 0C5.829 0 5.556.01 4.703.048 3.85.088 3.269.222 2.76.42a3.917 3.917 0 0 0-1.417.923A3.927 3.927 0 0 0 .42 2.76C.222 3.268.087 3.85.048 4.7.01 5.555 0 5.827 0 8.001c0 2.172.01 2.444.048 3.297.04.852.174 1.433.372 1.942.205.526.478.972.923 1.417.444.445.89.719 1.416.923.51.198 1.09.333 1.942.372C5.555 15.99 5.827 16 8 16s2.444-.01 3.298-.048c.851-.04 1.434-.174 1.943-.372a3.916 3.916 0 0 0 1.416-.923c.445-.445.718-.891.923-1.417.197-.509.332-1.09.372-1.942C15.99 10.445 16 10.173 16 8s-.01-2.445-.048-3.299c-.04-.851-.175-1.433-.372-1.941a3.926 3.926 0 0 0-.923-1.417A3.911 3.911 0 0 0 13.24.42c-.51-.198-1.092-.333-1.943-.372C10.443.01 10.172 0 7.998 0h.003zm-.717 1.442h.718c2.136 0 2.389.007 3.232.046.78.035 1.204.166 1.486.275.373.145.64.319.92.599.28.28.453.546.598.92.11.281.24.705.275 1.485.039.843.047 1.096.047 3.231s-.008 2.389-.047 3.232c-.035.78-.166 1.203-.275 1.485a2.47 2.47 0 0 1-.599.919c-.28.28-.546.453-.92.598-.28.11-.704.24-1.485.276-.843.038-1.096.047-3.232.047s-2.39-.009-3.233-.047c-.78-.036-1.203-.166-1.485-.276a2.478 2.478 0 0 1-.92-.598 2.48 2.48 0 0 1-.6-.92c-.109-.281-.24-.705-.275-1.485-.038-.843-.046-1.096-.046-3.233 0-2.136.008-2.388.046-3.231.036-.78.166-1.204.276-1.486.145-.373.319-.64.599-.92.28-.28.546-.453.92-.598.282-.11.705-.24 1.485-.276.738-.034 1.024-.044 2.515-.045v.002zm4.988 1.328a.96.96 0 1 0 0 1.92.96.96 0 0 0 0-1.92zm-4.27 1.122a4.109 4.109 0 1 0 0 8.217 4.109 4.109 0 0 0 0-8.217zm0 1.441a2.667 2.667 0 1 1 0 5.334 2.667 2.667 0 0 1 0-5.334z"/>
</symbol>
<symbol id="icon-pinterest" viewBox="0 0 16 16">
  <path d="M8 0a8 8 0 0 0-2.915 15.452c-.07-.633-.134-1.606.027-2.297.146-.625.938-3.977.938-3.977s-.239-.479-.239-1.187c0-1.113.645-1.943 1.448-1.943.682 0 1.012.512 1.012 1.127 0 .686-.437 1.712-.663 2.663-.188.796.4 1.446 1.185 1.446 1.422 0 2.515-1.5 2.515-3.664 0-1.915-1.377-3.254-3.342-3.254-2.276 0-3.612 1.707-3.612 3.471 0 .688.265 1.425.595 1.826a.24.24 0 0 1 .056.23c-.061.252-.196.796-.222.907-.035.146-.116.177-.268.107-1-.465-1.624-1.926-1.624-3.1 0-2.523 1.834-4.84 5.286-4.84 2.775 0 4.932 1.977 4.932 4.62 0 2.757-1.739 4.976-4.151 4.976-.811 0-1.573-.421-1.834-.919l-.498 1.902c-.181.695-.669 1.566-.995 2.097A8 8 0 1 0 8 0z"/>
</symbol>
</defs>
</svg>