<!-- * All icons are SVG and come from https://icons.getbootstrap.com/ -->
<svg xmlns="http://www.w3.org/2000/svg" width="16" height="16" fill="currentColor">
<defs>
<symbol id="icon-logo" viewBox="0 0 125 125">
    <g stroke="#26BBA4" stroke-width="10" fill="none" fill-rule="evenodd">
        <circle cx="62.5" cy="62.5" r="57.5"/>
        <path d="M85.481 85.481c-12.692 12.692-33.27 12.692-45.962 0s-12.692-33.27 0-45.962 33.27-12.692 45.962 0" stroke-linecap="round"/>
    </g>
</symbol>
<symbol id="icon-blacklist" viewBox="0 0 44 44">
    <path d="M11.07 0C8.353 0 6.14 2.192 6.14 4.876l-.179 25.278 2.69.02.179-25.289c0-1.21 1.005-2.196 2.24-2.196h27.027V0H11.071z"/>
    <path d="M38.097 0a5.115 5.115 0 00-5.11 5.11v28.37c0 2.052-1.668 3.72-3.72 3.72a3.725 3.725 0 01-3.72-3.72V30.21c0-.743-.601-1.345-1.344-1.345H1.345C.602 28.864 0 29.466 0 30.21v3.272a6.417 6.417 0 006.41 6.409V37.2a3.724 3.724 0 01-3.72-3.72v-1.927h20.168v1.928a6.417 6.417 0 006.41 6.409 6.417 6.417 0 006.409-6.41V12.46h6.185c.743 0 1.345-.602 1.345-1.345V5.11A5.115 5.115 0 0038.097 0zm2.42 9.77h-4.84V5.11a2.423 2.423 0 012.42-2.42 2.423 2.423 0 012.42 2.42v4.66z"/>
    <path d="M6.14 37.201h22.813v2.689H6.14zM19.99 7.485h-6.947a1.345 1.345 0 100 2.69h6.947a1.345 1.345 0 100-2.69zM28.057 12.863H13.043a1.345 1.345 0 100 2.69h15.014a1.345 1.345 0 100-2.69zM28.057 18.242H13.043a1.345 1.345 0 100 2.69h15.014a1.344 1.344 0 100-2.69zM28.057 23.62H13.043a1.345 1.345 0 100 2.69h15.014a1.345 1.345 0 100-2.69z"/>
</symbol>
<symbol id="icon-text" viewBox="0 0 36 36">
    <path d="M17.872 14.736a235.39 235.39 0 012.192 5.744c.746 2.027 1.536 4.24 2.368 6.64h-5.344a44.4 44.4 0 00-.784-2.368c-.288-.81-.57-1.632-.848-2.432h-8.64c-.278.8-.56 1.621-.848 2.432a44.4 44.4 0 00-.784 2.368H0a371.54 371.54 0 012.368-6.644 233.104 233.104 0 012.192-5.748 206.71 206.71 0 012.112-5.112c.693-1.61 1.413-3.136 2.16-4.736H13.6c.725 1.6 1.44 3.125 2.144 4.736.704 1.61 1.413 3.328 2.128 5.12zM7.968 18.32h6.303c-.34-.96-.671-1.878-.991-2.752a94.407 94.407 0 00-.912-2.4c-.288-.725-.539-1.365-.752-1.92-.214-.555-.384-.992-.512-1.313-.107.32-.267.758-.48 1.313a1241.872 1241.872 0 00-1.648 4.32c-.331.874-.667 1.792-1.008 2.752zM35.04 3.2h-3.2v25.6h3.2V32h-9.6v-3.2h3.2V3.2h-3.2V0h9.6v3.2z" fill="#9EABB2" fill-rule="nonzero"/>
</symbol>
<symbol id="icon-preview" viewBox="0 0 52 52">
   <path d="M49.059 14.072c-2.585-4.227-6.06-7.623-10.424-10.188C34.27 1.318 29.66.035 24.806.035c-4.854 0-9.464 1.283-13.829 3.849C6.612 6.449 3.137 9.845.554 14.072c-.37.646-.554 1.283-.554 1.91 0 .628.185 1.265.554 1.91 2.583 4.227 6.058 7.624 10.423 10.189 4.365 2.565 8.975 3.847 13.83 3.847 4.853 0 9.463-1.277 13.828-3.833 4.365-2.557 7.84-5.957 10.424-10.202.369-.646.553-1.283.553-1.91 0-.628-.184-1.265-.553-1.911zM18.867 6.5c1.652-1.652 3.631-2.478 5.939-2.478.369 0 .683.13.941.388.258.258.388.572.388.941 0 .37-.13.683-.387.941a1.28 1.28 0 01-.942.388c-1.587 0-2.944.563-4.07 1.689-1.126 1.126-1.688 2.482-1.688 4.07 0 .369-.13.683-.388.941a1.28 1.28 0 01-.941.388c-.37 0-.683-.13-.942-.388a1.282 1.282 0 01-.388-.942c0-2.306.827-4.286 2.478-5.938zm17.969 18.522c-3.701 2.242-7.71 3.364-12.03 3.364-4.319 0-8.329-1.121-12.03-3.364-3.7-2.243-6.777-5.256-9.232-9.04 2.805-4.356 6.321-7.614 10.548-9.773a12.099 12.099 0 00-1.689 6.23c0 3.414 1.214 6.334 3.64 8.762 2.428 2.427 5.349 3.64 8.763 3.64 3.415 0 6.335-1.213 8.762-3.64 2.428-2.427 3.641-5.348 3.641-8.763 0-2.233-.563-4.31-1.689-6.229 4.227 2.16 7.743 5.418 10.548 9.773-2.454 3.784-5.532 6.797-9.232 9.04z" fill="#9EABB2" fill-rule="nonzero"/>
</symbol>
<symbol id="icon-facebook" viewBox="0 0 16 16">
  <path d="M16 8.049c0-4.446-3.582-8.05-8-8.05C3.58 0-.002 3.603-.002 8.05c0 4.017 2.926 7.347 6.75 7.951v-5.625h-2.03V8.05H6.75V6.275c0-2.017 1.195-3.131 3.022-3.131.876 0 1.791.157 1.791.157v1.98h-1.009c-.993 0-1.303.621-1.303 1.258v1.51h2.218l-.354 2.326H9.25V16c3.824-.604 6.75-3.934 6.75-7.951z"/>
</symbol>
<symbol id="icon-twitter" viewBox="0 0 16 16">
  <path d="M5.026 15c6.038 0 9.341-5.003 9.341-9.334 0-.14 0-.282-.006-.422A6.685 6.685 0 0 0 16 3.542a6.658 6.658 0 0 1-1.889.518 3.301 3.301 0 0 0 1.447-1.817 6.533 6.533 0 0 1-2.087.793A3.286 3.286 0 0 0 7.875 6.03a9.325 9.325 0 0 1-6.767-3.429 3.289 3.289 0 0 0 1.018 4.382A3.323 3.323 0 0 1 .64 6.575v.045a3.288 3.288 0 0 0 2.632 3.218 3.203 3.203 0 0 1-.865.115 3.23 3.23 0 0 1-.614-.057 3.283 3.283 0 0 0 3.067 2.277A6.588 6.588 0 0 1 .78 13.58a6.32 6.32 0 0 1-.78-.045A9.344 9.344 0 0 0 5.026 15z"/>
</symbol>
<symbol id="icon-instagram" viewBox="0 0 16 16">
  <path d="M8 0C5.829 0 5.556.01 4.703.048 3.85.088 3.269.222 2.76.42a3.917 3.917 0 0 0-1.417.923A3.927 3.927 0 0 0 .42 2.76C.222 3.268.087 3.85.048 4.7.01 5.555 0 5.827 0 8.001c0 2.172.01 2.444.048 3.297.04.852.174 1.433.372 1.942.205.526.478.972.923 1.417.444.445.89.719 1.416.923.51.198 1.09.333 1.942.372C5.555 15.99 5.827 16 8 16s2.444-.01 3.298-.048c.851-.04 1.434-.174 1.943-.372a3.916 3.916 0 0 0 1.416-.923c.445-.445.718-.891.923-1.417.197-.509.332-1.09.372-1.942C15.99 10.445 16 10.173 16 8s-.01-2.445-.048-3.299c-.04-.851-.175-1.433-.372-1.941a3.926 3.926 0 0 0-.923-1.417A3.911 3.911 0 0 0 13.24.42c-.51-.198-1.092-.333-1.943-.372C10.443.01 10.172 0 7.998 0h.003zm-.717 1.442h.718c2.136 0 2.389.007 3.232.046.78.035 1.204.166 1.486.275.373.145.64.319.92.599.28.28.453.546.598.92.11.281.24.705.275 1.485.039.843.047 1.096.047 3.231s-.008 2.389-.047 3.232c-.035.78-.166 1.203-.275 1.485a2.47 2.47 0 0 1-.599.919c-.28.28-.546.453-.92.598-.28.11-.704.24-1.485.276-.843.038-1.096.047-3.232.047s-2.39-.009-3.233-.047c-.78-.036-1.203-.166-1.485-.276a2.478 2.478 0 0 1-.92-.598 2.48 2.48 0 0 1-.6-.92c-.109-.281-.24-.705-.275-1.485-.038-.843-.046-1.096-.046-3.233 0-2.136.008-2.388.046-3.231.036-.78.166-1.204.276-1.486.145-.373.319-.64.599-.92.28-.28.546-.453.92-.598.282-.11.705-.24 1.485-.276.738-.034 1.024-.044 2.515-.045v.002zm4.988 1.328a.96.96 0 1 0 0 1.92.96.96 0 0 0 0-1.92zm-4.27 1.122a4.109 4.109 0 1 0 0 8.217 4.109 4.109 0 0 0 0-8.217zm0 1.441a2.667 2.667 0 1 1 0 5.334 2.667 2.667 0 0 1 0-5.334z"/>
</symbol>

</defs>
</svg>